<svg width="15.000000" height="15.000000" viewBox="0 0 15 15" fill="none" xmlns="http://www.w3.org/2000/svg" xmlns:xlink="http://www.w3.org/1999/xlink">
	<desc>
			Created with Pixso.
	</desc>
	<g clip-path="url(#clip37_5110)">
		<path id="Vector" d="M6.5625 0.000610352C2.94434 0.000610352 0.000976562 2.39764 0.000976562 5.34406C0.000976562 6.83649 0.75 8.23608 2.07422 9.24292C1.63672 9.92627 1.07031 10.6182 0.355469 10.7944C0.129883 10.8506 -0.0214844 11.0643 0.00195312 11.2959C0.0253906 11.5284 0.21582 11.7075 0.449219 11.7178C0.459961 11.7178 0.5 11.7196 0.567383 11.7196C1.05273 11.7196 2.92383 11.6418 5.04688 10.5403C5.5332 10.6387 6.04199 10.6875 6.5625 10.6875C10.1807 10.6875 13.125 8.29047 13.125 5.34406C13.125 2.39764 10.1807 0.000610352 6.5625 0.000610352Z" fill-rule="nonzero" fill="#FFFFFF"/>
		<path id="Vector" d="M14.6436 14.0406C14.0459 13.8934 13.5938 13.4565 13.2783 13.0234C14.3779 12.1619 14.999 10.977 14.999 9.71423C14.999 8.6568 14.5547 7.68469 13.8174 6.90753C12.9844 9.61584 10.0527 11.6248 6.5625 11.6248C6.09668 11.6248 5.63574 11.5891 5.18945 11.5189C4.92285 11.6473 4.66211 11.7607 4.40625 11.8619C5.35254 13.315 7.22363 14.3077 9.375 14.3077C9.81445 14.3077 10.2412 14.2675 10.6455 14.1887C11.9912 14.874 13.2178 15.0005 13.9404 14.9996C14.3359 14.9996 14.5791 14.9621 14.6064 14.9574C14.8262 14.9218 14.9902 14.7361 14.999 14.514C15.0078 14.2918 14.8594 14.0931 14.6436 14.0406Z" fill-rule="nonzero" fill="#FFFFFF"/>
	</g>
	<defs>
		<clipPath id="clip37_5110">
			<rect id="chat (1) 1" width="15.000000" height="15.000000" fill="white"/>
		</clipPath>
	</defs>
</svg>
