<svg width="20.000000" height="20.000000" viewBox="0 0 20 20" fill="none" xmlns="http://www.w3.org/2000/svg" xmlns:xlink="http://www.w3.org/1999/xlink">
	<desc>
			Created with Pixso.
	</desc>
	<g clip-path="url(#clip37_5071)">
		<path id="Vector" d="M10 4.03906C6.17871 4.03906 2.71387 6.1297 0.15625 9.52539C-0.0517578 9.80359 -0.0517578 10.1923 0.15625 10.4705C2.71387 13.8703 6.17871 15.9609 10 15.9609C13.8213 15.9609 17.2861 13.8703 19.8438 10.4745C20.0518 10.1964 20.0518 9.80768 19.8438 9.52948C17.2861 6.1297 13.8213 4.03906 10 4.03906ZM10.2744 14.1976C7.7373 14.3572 5.64258 12.2665 5.80273 9.72589C5.93359 7.63116 7.63086 5.93329 9.72559 5.80237C12.2627 5.64282 14.3574 7.73346 14.1973 10.2741C14.0625 12.3647 12.3643 14.0626 10.2744 14.1976ZM10.1475 12.2584C8.78125 12.3442 7.65137 11.2192 7.74121 9.85272C7.81152 8.72351 8.72754 7.81116 9.85645 7.73755C11.2236 7.65161 12.3525 8.77673 12.2627 10.1432C12.1885 11.2764 11.2725 12.1888 10.1475 12.2584Z" fill-rule="nonzero" fill="#FFFFFF"/>
	</g>
	<defs>
		<clipPath id="clip37_5071">
			<rect id="eye 1" width="20.000000" height="20.000000" fill="white"/>
		</clipPath>
	</defs>
</svg>
