<svg width="43.000000" height="36.000000" viewBox="0 0 43 36" fill="none" xmlns="http://www.w3.org/2000/svg" xmlns:xlink="http://www.w3.org/1999/xlink">
	<desc>
			Created with Pixso.
	</desc>
	<g clip-path="url(#clip37_5191)">
		<path id="Vector" d="M38.1396 21.8629C38.2725 21.4398 38.4893 20.8245 38.7188 20.1247C38.7471 20.1494 38.7783 20.1711 38.8154 20.1865C39.5547 20.491 40.8574 19.7899 41.7881 18.9375C42.7197 18.0845 43 15.3741 43 15.3741C41.1279 15.5353 40.0176 16.5755 39.5234 17.1802C39.6172 16.6805 39.6768 16.2055 39.6768 15.7873C39.6768 15.5563 39.6719 15.3135 39.6641 15.0634C39.7129 15.1017 39.7695 15.127 39.835 15.135C40.626 15.2283 41.7031 14.1999 42.3838 13.1244C43.0645 12.049 42.6426 9.35843 42.6426 9.35843C40.1318 10.301 39.5625 12.5444 39.5625 12.5444C39.5625 12.5444 39.54 12.6501 39.5127 12.8169C39.4189 11.9058 39.2871 11.0317 39.1279 10.3504C39.917 10.2442 40.7236 8.98409 41.1367 7.77528C41.5498 6.56462 40.5186 4.05373 40.5186 4.05373C38.2979 5.58249 38.2617 7.90129 38.2617 7.90129C38.2617 7.90129 38.2637 7.99271 38.2734 8.13971C37.9473 7.41087 37.5605 6.56401 37.207 5.85365C37.832 5.51825 38.1445 4.22668 38.1445 3.09445C38.1445 1.95544 36.5635 0.16539 36.5635 0.16539C35.585 1.50824 35.5791 2.85109 35.6699 3.55896C35.4482 3.27235 35.2227 2.9913 35.0117 2.80537C34.6045 1.76212 33.585 0.0517273 30.7139 0.16539C30.7139 0.16539 31.5049 4.07101 34.667 4.07101L34.8672 3.9308C35.0146 4.09758 35.25 4.3669 35.5244 4.69736C35.4629 4.67265 35.3984 4.64917 35.3291 4.63126C34.5586 4.4299 32.8535 4.18282 31.7275 4.9469C31.7275 4.9469 33.3525 6.99207 35.0645 7.07608C36.2988 7.13663 36.7969 6.82651 36.9805 6.64804C37.3887 7.28482 37.6865 7.89079 37.6865 8.30215C37.6865 8.30652 37.6865 8.31023 37.6865 8.31453C37.5684 8.20085 37.4238 8.09341 37.2422 8.00879C36.5166 7.66907 34.8799 7.11253 33.6445 7.65791C33.6445 7.65791 34.9043 9.96992 36.5752 10.3671C37.627 10.6167 38.1748 10.4857 38.4375 10.3542C38.6035 10.928 38.7744 11.7272 38.6816 12.3709L38.6816 12.3715C38.5967 12.2412 38.4854 12.1115 38.334 11.9953C37.6787 11.49 36.1309 10.5623 34.6436 10.8378C34.6436 10.8378 35.2129 13.4537 36.8506 14.2277C37.7783 14.6662 38.376 14.7014 38.7197 14.6501C38.75 15.1109 38.8271 16.4124 38.7754 17.3643C38.7363 17.2315 38.6777 17.0956 38.5918 16.9621C38.1465 16.2679 37.0195 14.9028 35.6016 14.7959C35.6016 14.7959 35.3613 17.6478 36.6133 18.8776C37.2881 19.5404 37.7969 19.7467 38.125 19.7973C37.8682 20.4848 37.5693 21.2378 37.3164 21.8641C37.3066 21.8135 37.2959 21.7616 37.2812 21.7085C37.0586 20.8734 36.3857 19.1117 35.0996 18.3414C35.0996 18.3414 34.0986 20.7887 34.9238 22.4886C35.3672 23.4015 35.7832 23.8308 36.0723 24.0328L34.8799 25.4226C34.8799 25.3843 34.8789 25.346 34.875 25.3059C34.7988 24.4609 34.4121 22.6393 33.1465 21.6553C33.1465 21.6553 31.541 23.8185 32.1084 25.6091C32.4404 26.6586 32.8535 27.1478 33.1387 27.3739L31.0205 29.1238C31.1338 28.9595 31.2324 28.7612 31.2803 28.5234C31.4561 27.6741 31.6025 25.8136 30.5811 24.6628C30.5811 24.6628 28.2559 26.5894 28.3076 28.4443C28.3428 29.7279 28.7295 30.2523 28.9658 30.4543C28.3418 30.7866 27.5938 31.1844 26.9814 31.5062C26.9863 31.4951 26.9941 31.4846 27 31.4729C27.376 30.6995 27.9727 28.9404 27.2656 27.553C27.2656 27.553 24.5488 28.7884 24.1455 30.5951C23.9082 31.6557 24.0488 32.2542 24.2061 32.5699C23.3691 32.7892 22.3652 33.0399 21.4854 33.2759C20.6318 33.0566 19.7285 32.8336 19.002 32.6421C19 32.639 18.998 32.6366 18.9951 32.6335C19.1416 32.5223 19.6885 31.988 19.3838 30.4067C19.0342 28.5926 16.1592 27.2336 16.1592 27.2336C15.3311 28.5771 15.8906 30.3536 16.2598 31.1399C16.6289 31.9262 17.5342 32.1048 17.5342 32.1048L17.7168 32.1752C17.6338 32.1647 17.5508 32.156 17.4688 32.1486C16.8789 31.8528 15.3926 31.075 14.3506 30.5278C14.6133 30.34 15.0596 29.8391 15.1592 28.5623C15.3027 26.7222 12.8857 24.6962 12.8857 24.6962C11.7275 25.7895 11.7979 27.6451 11.9453 28.4968C11.9854 28.7242 12.0742 28.9187 12.1816 29.0824L10.1445 27.4245C10.3848 27.2936 10.8516 26.8908 11.2148 25.6703C11.7256 23.95 10.2949 21.6906 10.2949 21.6906C9.16016 22.5609 8.81055 24.3262 8.74023 25.1533C8.70898 25.5221 8.80176 25.8241 8.91504 26.0459L7.04688 23.9006C7.33594 23.7579 7.7959 23.3867 8.2959 22.4243C9.12695 20.8245 8.15234 18.3488 8.15234 18.3488C6.87109 19.0018 6.19043 20.6744 5.96289 21.4743C5.93945 21.5578 5.9248 21.6374 5.91504 21.7159C5.59863 20.9394 5.23926 20.0339 4.97754 19.3038C5.30078 19.2797 5.87207 19.1117 6.71973 18.41C8.12695 17.2457 8.21875 14.5983 8.21875 14.5983C6.77637 14.7212 5.47852 16.0097 4.94922 16.6626C4.63867 17.0455 4.57324 17.4458 4.57227 17.712C4.48047 16.5409 4.62891 14.6433 4.62891 14.6433C4.62891 14.6433 4.62988 14.6372 4.63086 14.6285C4.98047 14.6353 5.51562 14.5495 6.2998 14.1974C7.97949 13.4426 8.80664 10.9175 8.80664 10.9175C7.38281 10.6599 5.77441 11.5623 5.08203 12.0527C4.8916 12.188 4.75293 12.3412 4.65039 12.4926C4.55469 11.7439 4.80566 10.8001 4.98926 10.243C5.0293 10.2071 5.06738 10.1639 5.10254 10.1139C5.3877 10.2541 5.9707 10.3986 7.08984 10.2065C8.91309 9.89336 10.3838 7.65791 10.3838 7.65791C9.07617 7.05569 7.28223 7.52882 6.48242 7.83153C6.07422 7.98592 5.81836 8.2435 5.66699 8.45844C5.67188 7.97112 6.09375 7.21506 6.62207 6.45775C6.78711 6.63628 7.29492 7.00256 8.69727 7.00256C10.5488 7.00256 12.4014 5.05005 12.4014 5.05005C11.2227 4.23656 9.37012 4.39902 8.5293 4.56209C8.27832 4.61026 8.07324 4.7023 7.9082 4.8073C8.3584 4.27548 8.69727 3.91104 8.69727 3.91104C12.0654 3.91104 12.9072 0.00540161 12.9072 0.00540161C9.12402 -0.135422 8.3584 2.51692 8.1123 3.24084C7.89648 3.48112 7.6748 3.77454 7.46289 4.04199C7.49902 3.95984 7.51855 3.91042 7.51855 3.91042C7.51855 3.91042 8.19238 1.95792 6.67676 0.00479126C6.67676 0.00479126 4.99316 1.79485 4.99316 2.93385C4.99316 4.07288 5.33008 5.37495 6.00391 5.69986C6.10547 5.7493 6.21191 5.74185 6.31836 5.6949C6.06445 6.18288 5.78223 6.76785 5.51172 7.34724C5.34766 6.56584 4.8291 5.11986 3.18262 4.05557C3.18262 4.05557 2.08398 6.56584 2.52441 7.77716C2.89648 8.80063 3.57031 9.85873 4.27734 10.2238C4.13867 10.7328 4.0166 11.3857 3.91895 12.0985C3.65723 11.4641 2.83008 9.93347 0.741211 9.19719C0.741211 9.19719 0.291016 11.8879 1.01562 12.9632C1.72266 14.0121 2.83105 15.014 3.66699 14.9756C3.65332 15.3154 3.64551 15.644 3.64551 15.9516C3.64551 16.237 3.67383 16.5489 3.72168 16.8775C3.2041 16.2765 2.0166 15.2135 0 15.051C0 15.051 0.298828 17.7614 1.29102 18.6145C2.2832 19.4675 3.66992 20.168 4.45703 19.8634C4.46387 19.8609 4.46875 19.8572 4.47559 19.8548C4.71484 20.6003 4.95703 21.2791 5.12402 21.7789C5.00488 21.7004 3.08301 20.4786 0.49707 21.3965C0.49707 21.3965 1.9502 23.732 3.22266 24.1007C4.33691 24.4238 5.67285 24.5177 6.37891 24.1354C6.91895 24.8432 7.59961 25.6672 8.26172 26.4529C7.91895 26.2398 7.64355 26.0984 7.64355 26.0984C7.64355 26.0984 5.47461 25.1051 3.00879 26.4776C3.00879 26.4776 4.85156 28.5407 6.16992 28.6958C7.48926 28.8508 9.04102 28.6636 9.50879 27.9798C9.5166 27.9687 9.52246 27.957 9.52734 27.9458C9.58887 28.0181 9.64941 28.0886 9.70703 28.1571C10.1104 28.6346 10.8154 29.1924 11.6289 29.7545C11.0713 29.6568 9.13379 29.4592 7.29785 30.9583C7.29785 30.9583 9.49121 32.6712 10.8174 32.5964C12.1436 32.5217 13.6367 32.0702 13.9707 31.3166C13.9814 31.2931 13.9893 31.269 13.9941 31.2456C14.6504 31.6304 15.2695 31.9763 15.7705 32.2499C14.9463 32.479 13.5918 33.0763 12.6338 34.6169C12.6338 34.6169 15.2812 35.5558 16.5117 35.0727C17.4658 34.6978 18.4385 34.0764 18.8574 33.4352C19.2061 33.5328 19.5752 33.6335 19.9385 33.7287C19.8105 33.7725 19.6963 33.8139 19.6055 33.8522C18.4443 34.3401 17.2832 35.1543 17.2832 35.3167C17.2832 35.4792 17.9463 35.9678 18.1133 35.8047C18.2686 35.6527 20.0205 34.3611 21.332 34.0616C21.5869 34.1147 21.8145 34.1548 21.998 34.1771C23.3447 34.3395 25.3652 35.8041 25.5332 35.9671C25.7012 36.1302 26.375 35.6416 26.375 35.4792C26.375 35.3167 25.1963 34.5026 24.0176 34.0146C23.8027 33.9257 23.4756 33.8201 23.0811 33.7058C23.6943 33.552 24.3633 33.3667 24.9512 33.1968C25.1367 33.9702 26.2471 34.7818 27.3291 35.2346C28.4834 35.7176 30.9697 34.7787 30.9697 34.7787C29.7002 32.6051 27.6914 32.3092 27.3857 32.2765C27.8945 31.9991 28.5928 31.6088 29.3506 31.1603C29.3486 31.2122 29.3564 31.2647 29.3779 31.3166C29.6914 32.0702 31.0938 32.5217 32.3379 32.5964C33.583 32.6712 35.6426 30.9583 35.6426 30.9583C33.9189 29.4586 32.0996 29.6568 31.5762 29.7545C32.4766 29.138 33.2686 28.5172 33.7051 27.994C33.7588 27.9298 33.8145 27.8631 33.8711 27.7951C33.8311 27.9187 33.8359 28.0367 33.9043 28.1423C34.3438 28.8261 35.8008 29.0132 37.0391 28.8582C38.2773 28.7032 40.0078 26.64 40.0078 26.64C37.6924 25.2676 35.6562 26.2608 35.6562 26.2608C35.6562 26.2608 35.0332 26.6012 34.5195 27.0224C35.2617 26.1354 36.1006 25.1249 36.7734 24.2503C37.4131 24.6851 38.7217 24.5986 39.8076 24.2632C41.002 23.8945 42.3662 21.559 42.3662 21.559C40.2393 20.7517 38.5908 21.5899 38.1396 21.8629ZM41.5195 16.9121C41.3047 17.3099 39.3584 19.1463 39.3584 19.1463C39.6455 18.6157 41.5195 16.9121 41.5195 16.9121ZM41.6074 11.243C41.502 11.6846 40.0938 13.9837 40.0938 13.9837C40.2354 13.3944 41.6074 11.243 41.6074 11.243ZM33.5996 5.30022C34.5674 5.28723 36.1895 6.17116 36.1895 6.17116C35.7441 6.16376 33.5996 5.30022 33.5996 5.30022ZM36.6816 2.0833C36.8115 2.46442 36.8467 4.87587 36.8467 4.87587C36.6748 4.36813 36.6816 2.0833 36.6816 2.0833ZM32.2959 1.46747C33.1465 1.64661 34.5088 3.24702 34.5088 3.24702C34.168 3.05617 32.2959 1.46747 32.2959 1.46747ZM36.3027 11.9329C37.2588 12.3128 38.4082 13.8163 38.4082 13.8163C37.9746 13.6285 36.3027 11.9329 36.3027 11.9329ZM10.3633 5.30762C10.3633 5.30762 8.00684 6.06119 7.52441 6.04698C7.52441 6.04698 9.31934 5.24774 10.3633 5.30762ZM1.8418 11.0806C1.8418 11.0806 3.30371 13.2319 3.4541 13.8212C3.4541 13.8212 1.9541 11.5222 1.8418 11.0806ZM1.57715 16.5866C1.57715 16.5866 3.57324 18.2902 3.87793 18.8207C3.87793 18.8201 1.80566 16.9844 1.57715 16.5866ZM5.21191 26.8711C5.21191 26.8711 7.85645 27.1725 8.41992 27.4406C8.41992 27.44 5.63379 27.0719 5.21191 26.8711ZM9.53906 30.9657C9.53906 30.9657 12.1973 30.807 12.7998 30.9737C12.7998 30.9731 9.99121 31.0905 9.53906 30.9657ZM16.8809 29.1664C16.8809 29.1664 18.2998 31.2987 18.3721 31.7743C18.3721 31.7743 17 30.2023 16.8809 29.1664ZM13.0684 26.7426C13.0684 26.7426 13.874 29.1553 13.8174 29.6328C13.8174 29.6328 12.9092 27.7735 13.0684 26.7426ZM9.99023 23.6523C9.99023 23.6523 10.0898 26.0489 9.94238 26.4931C9.94238 26.4931 9.64258 24.6054 9.99023 23.6523ZM7.47754 20.2229C7.47754 20.2229 7.11719 22.5961 6.8877 23.0062C6.8877 23.0062 6.9541 21.0976 7.47754 20.2229ZM6.8457 16.0746C6.8457 16.0746 5.56348 18.1283 5.1875 18.4205C5.1875 18.4211 6.0127 16.6854 6.8457 16.0746ZM7.07324 11.9805C7.07324 11.9805 5.26465 13.6242 4.82129 13.8076C4.82129 13.8076 6.09961 12.3517 7.07324 11.9805ZM8.42383 8.25525C8.42383 8.25525 6.24023 9.39549 5.76367 9.46283C5.76367 9.46283 7.38574 8.37259 8.42383 8.25525ZM11.2217 1.3044C11.2217 1.3044 9.38867 2.76462 8.91797 3.05246C8.91895 3.04257 8.91797 3.03455 8.91895 3.02528C9.18848 2.73744 10.418 1.46315 11.2217 1.3044ZM6.55078 1.92085C6.55078 1.92085 6.55859 4.20506 6.375 4.71341C6.375 4.71341 6.41211 2.30197 6.55078 1.92085ZM4.68066 9.1657C4.68066 9.16631 4.68066 9.16692 4.68066 9.16757C4.66211 9.11383 3.78906 6.5881 3.78906 6.1378C3.78906 6.1378 4.67676 8.55295 4.68066 9.1657ZM2.59766 22.1452C2.59766 22.1452 5.15137 22.8759 5.65918 23.2323C5.65918 23.2323 2.97852 22.4126 2.59766 22.1452ZM14.7578 33.9257C14.7578 33.9257 16.4551 33.2524 17.3896 33.0066C17.4287 33.0183 17.4688 33.0301 17.5117 33.043C16.79 33.3086 15.123 33.9084 14.7578 33.9257ZM33.5391 30.9657C33.1143 31.0905 30.4766 30.9737 30.4766 30.9737C31.043 30.807 33.5391 30.9657 33.5391 30.9657ZM37.9385 27.0335C37.542 27.2343 34.9258 27.603 34.9258 27.603C35.4551 27.3349 37.9385 27.0335 37.9385 27.0335ZM39.9482 6.1378C39.9473 6.59302 39.1104 9.17001 39.1104 9.17001C39.1104 8.56284 39.9482 6.1378 39.9482 6.1378ZM35.4297 8.34911C36.3838 8.51405 37.835 9.68268 37.835 9.68268C37.3965 9.59314 35.4297 8.34911 35.4297 8.34911ZM38.1338 18.8622C37.7969 18.5539 36.7803 16.363 36.7803 16.363C37.5312 17.006 38.1338 18.8622 38.1338 18.8622ZM35.7646 20.3088C36.2852 21.244 36.3379 23.1971 36.3379 23.1971C36.1094 22.7598 35.7646 20.3088 35.7646 20.3088ZM33.4814 23.6721C33.8672 24.6696 33.5273 26.5573 33.5273 26.5573C33.3643 26.094 33.4814 23.6721 33.4814 23.6721ZM30.3203 26.7105C30.4219 27.7538 29.499 29.5802 29.499 29.5802C29.4678 29.0978 30.3203 26.7105 30.3203 26.7105ZM26.5127 29.4616C26.3564 30.4969 25.0186 32.0139 25.0186 32.0139C25.1064 31.5396 26.5127 29.4616 26.5127 29.4616ZM26.0732 33.0813C26.6621 33.1116 28.9756 34.0887 28.9756 34.0887C28.5342 34.0659 26.0732 33.0813 26.0732 33.0813ZM37.5186 23.3953C37.9951 23.0389 40.3936 22.3082 40.3936 22.3082C40.0352 22.5751 37.5186 23.3953 37.5186 23.3953Z" fill-rule="nonzero" fill="#FFFFFF"/>
		<path id="Vector" d="M12.4629 9.37549C12.4629 9.37549 14.6377 9.37549 16.8125 8.64351C18.9883 7.91154 21.2803 6.67432 21.2803 6.67432C21.2803 6.67432 24.7227 8.46068 26.1064 8.64351C27.4912 8.82635 30.5918 9.37549 30.5918 9.37549C30.5918 9.37549 31.7773 22.3759 21.5273 26.8517C21.5273 26.8517 11.2764 23.4618 12.4629 9.37549Z" fill-rule="nonzero" fill="#E9E9E9"/>
		<path id="Vector" d="M13.8037 10.2539C13.8037 10.2539 15.6562 10.2539 17.5088 9.60286C19.3604 8.95181 21.3125 7.85107 21.3125 7.85107C21.3125 7.85107 24.2441 9.4404 25.4229 9.60286C26.6006 9.7653 29.2412 10.2539 29.2412 10.2539C29.2412 10.2539 30.252 21.8176 21.5234 25.7992C21.5225 25.7992 12.7939 22.7837 13.8037 10.2539Z" fill-rule="nonzero" fill="#FFFFFF"/>
		<path id="Vector" d="M21.6641 17.3325C18.9004 17.3325 17.2412 15.1483 17.2246 15.1261L17.1855 15.0742L17.2285 15.0254C17.249 15.0032 19.2266 12.8252 21.6689 12.9698C23.9619 13.1063 25.7568 15.0051 25.7734 15.0242L25.8145 15.0681L25.7842 15.1193C25.7715 15.1409 24.4326 17.3325 21.6641 17.3325ZM17.4023 15.0829C17.6699 15.4103 19.2246 17.17 21.6641 17.17C24.0996 17.17 25.3887 15.4127 25.6055 15.0891C25.3232 14.8055 23.6875 13.2533 21.6592 13.1322C19.501 13.0019 17.708 14.7641 17.4023 15.0829Z" fill-rule="nonzero" fill="#000000"/>
		<path id="Vector" d="M17.4287 14.343L17.3184 14.2201C17.3984 14.1527 19.2988 12.5678 20.7754 12.6067L20.7715 12.7691C19.3516 12.7333 17.4482 14.3269 17.4287 14.343Z" fill-rule="nonzero" fill="#000000"/>
		<path id="Vector" d="M21.0146 12.7567L20.96 12.6029C21.1611 12.5356 21.6172 12.5584 21.6689 12.5609L21.6592 12.7233C21.5283 12.7165 21.1592 12.7085 21.0146 12.7567Z" fill-rule="nonzero" fill="#000000"/>
		<path id="Vector" d="M21.5 16.6005C20.7109 16.6005 20.0693 15.9803 20.0693 15.2175C20.0693 14.4546 20.7109 13.8345 21.5 13.8345C22.29 13.8345 22.9316 14.4546 22.9316 15.2175C22.9316 15.9803 22.2891 16.6005 21.5 16.6005ZM21.5 13.9969C20.8037 13.9969 20.2373 14.5442 20.2373 15.2175C20.2373 15.8907 20.8037 16.438 21.5 16.438C22.1973 16.438 22.7637 15.8907 22.7637 15.2175C22.7637 14.5442 22.1963 13.9969 21.5 13.9969Z" fill-rule="nonzero" fill="#000000"/>
		<path id="Vector" d="M21.501 15.2988C21.5703 15.2988 21.627 15.244 21.627 15.1765C21.627 15.109 21.5703 15.0542 21.501 15.0542C21.4307 15.0542 21.374 15.109 21.374 15.1765C21.374 15.244 21.4307 15.2988 21.501 15.2988Z" fill-rule="nonzero" fill="#FFFFFF"/>
		<path id="Vector" d="M21.501 15.2988C21.5703 15.2988 21.627 15.244 21.627 15.1765C21.627 15.109 21.5703 15.0542 21.501 15.0542C21.4307 15.0542 21.374 15.109 21.374 15.1765C21.374 15.244 21.4307 15.2988 21.501 15.2988Z" fill-rule="nonzero" fill="#FFFFFF"/>
		<path id="Vector" d="M21.3682 15.9217C21.3271 15.9069 21.29 15.8846 21.2539 15.855C21.2178 15.8253 21.1846 15.7883 21.1543 15.7438L21.251 15.5857C21.2852 15.6413 21.3223 15.6827 21.3633 15.7098C21.4043 15.7376 21.4492 15.7512 21.4971 15.7512C21.5645 15.7512 21.6143 15.7333 21.6475 15.6981C21.6807 15.6629 21.6963 15.6091 21.6963 15.5375L21.6963 15.5363C21.6963 15.4905 21.6875 15.4541 21.6719 15.4276C21.6562 15.401 21.6357 15.3806 21.6104 15.3676C21.584 15.354 21.5518 15.3423 21.5127 15.3324C21.5117 15.3318 21.5107 15.3312 21.5088 15.3312C21.5078 15.3312 21.5068 15.3306 21.5049 15.33C21.5029 15.3294 21.5 15.3288 21.4971 15.3281C21.4951 15.3275 21.4922 15.3269 21.4902 15.3263C21.4268 15.3102 21.376 15.2923 21.3369 15.2731C21.2979 15.2534 21.2646 15.2176 21.2363 15.1656C21.209 15.1138 21.1943 15.0402 21.1943 14.9451C21.1943 14.8525 21.207 14.7753 21.2324 14.7141C21.2568 14.653 21.2939 14.6067 21.3438 14.5757C21.3936 14.5449 21.4561 14.5294 21.5303 14.5294C21.5645 14.5294 21.5957 14.5338 21.6289 14.543C21.6602 14.5523 21.6924 14.5665 21.7246 14.585C21.7568 14.6036 21.7871 14.627 21.8184 14.6548L21.7314 14.816C21.6973 14.7845 21.6621 14.7605 21.6289 14.745C21.5957 14.7296 21.5635 14.7215 21.5303 14.7215C21.4688 14.7215 21.4219 14.7388 21.3906 14.7734C21.3594 14.808 21.3438 14.8599 21.3438 14.9291L21.3438 14.9303C21.3438 14.9779 21.3535 15.0155 21.3711 15.0421C21.3887 15.0687 21.4111 15.0891 21.4385 15.1014C21.4648 15.1138 21.502 15.1273 21.5488 15.1415C21.5508 15.1422 21.5527 15.1428 21.5547 15.1434C21.5566 15.144 21.5586 15.1446 21.5615 15.1452C21.5645 15.1459 21.5654 15.1465 21.5674 15.1471C21.5693 15.1477 21.5723 15.1483 21.5742 15.149C21.6299 15.1656 21.6768 15.1854 21.7139 15.2095C21.751 15.2336 21.7822 15.2719 21.8066 15.3244C21.832 15.3769 21.8447 15.4492 21.8447 15.54L21.8447 15.5418C21.8447 15.6314 21.832 15.7061 21.8057 15.7654C21.7803 15.8247 21.7412 15.8692 21.6895 15.8989C21.6377 15.9285 21.5732 15.9433 21.4951 15.9433C21.4521 15.9445 21.4092 15.9365 21.3682 15.9217ZM21.4395 14.375L21.583 14.375L21.583 14.5924L21.4395 14.5924L21.4395 14.375ZM21.4395 15.8692L21.583 15.8692L21.583 16.099L21.4395 16.099L21.4395 15.8692Z" fill-rule="nonzero" fill="#000000"/>
		<path id="Vector" d="M21.4326 13.7682C21.5068 13.7682 21.5674 13.7101 21.5674 13.6385C21.5674 13.5668 21.5068 13.5088 21.4326 13.5088C21.3594 13.5088 21.2988 13.5668 21.2988 13.6385C21.2988 13.7101 21.3594 13.7682 21.4326 13.7682Z" fill-rule="nonzero" fill="#000000"/>
		<path id="Vector" d="M20.9785 13.8176C21.0488 13.8176 21.1055 13.7626 21.1055 13.6947C21.1055 13.6268 21.0488 13.5718 20.9785 13.5718C20.9082 13.5718 20.8516 13.6268 20.8516 13.6947C20.8516 13.7626 20.9082 13.8176 20.9785 13.8176Z" fill-rule="nonzero" fill="#000000"/>
		<path id="Vector" d="M20.5713 13.9681C20.6377 13.9681 20.6914 13.9161 20.6914 13.852C20.6914 13.7878 20.6377 13.7358 20.5713 13.7358C20.5049 13.7358 20.4512 13.7878 20.4512 13.852C20.4512 13.9161 20.5049 13.9681 20.5713 13.9681Z" fill-rule="nonzero" fill="#000000"/>
		<path id="Vector" d="M20.2266 14.2065C20.29 14.2065 20.3408 14.1569 20.3408 14.0959C20.3408 14.0348 20.29 13.9854 20.2266 13.9854C20.1631 13.9854 20.1123 14.0348 20.1123 14.0959C20.1123 14.1569 20.1631 14.2065 20.2266 14.2065Z" fill-rule="nonzero" fill="#000000"/>
		<path id="Vector" d="M19.96 14.5176C20.0205 14.5176 20.0684 14.4706 20.0684 14.4126C20.0684 14.3546 20.0205 14.3076 19.96 14.3076C19.9004 14.3076 19.8516 14.3546 19.8516 14.4126C19.8516 14.4706 19.9004 14.5176 19.96 14.5176Z" fill-rule="nonzero" fill="#000000"/>
		<path id="Vector" d="M19.7881 14.8864C19.8457 14.8864 19.8916 14.8413 19.8916 14.7857C19.8916 14.7301 19.8457 14.6851 19.7881 14.6851C19.7305 14.6851 19.6836 14.7301 19.6836 14.7857C19.6836 14.8413 19.7305 14.8864 19.7881 14.8864Z" fill-rule="nonzero" fill="#000000"/>
		<path id="Vector" d="M19.7275 15.2979C19.7822 15.2979 19.8271 15.2545 19.8271 15.201C19.8271 15.1475 19.7822 15.104 19.7275 15.104C19.6719 15.104 19.627 15.1475 19.627 15.201C19.627 15.2545 19.6719 15.2979 19.7275 15.2979Z" fill-rule="nonzero" fill="#000000"/>
		<path id="Vector" d="M19.7881 15.7102C19.8418 15.7102 19.8857 15.6682 19.8857 15.6163C19.8857 15.5645 19.8418 15.5225 19.7881 15.5225C19.7354 15.5225 19.6914 15.5645 19.6914 15.6163C19.6914 15.6682 19.7354 15.7102 19.7881 15.7102Z" fill-rule="nonzero" fill="#000000"/>
		<path id="Vector" d="M19.96 16.0818C20.0127 16.0818 20.0557 16.0403 20.0557 15.9891C20.0557 15.938 20.0127 15.8965 19.96 15.8965C19.9072 15.8965 19.8643 15.938 19.8643 15.9891C19.8643 16.0403 19.9072 16.0818 19.96 16.0818Z" fill-rule="nonzero" fill="#000000"/>
		<path id="Vector" d="M20.2266 16.3974C20.2783 16.3974 20.3213 16.3562 20.3213 16.3054C20.3213 16.2545 20.2783 16.2134 20.2266 16.2134C20.1738 16.2134 20.1309 16.2545 20.1309 16.3054C20.1309 16.3562 20.1738 16.3974 20.2266 16.3974Z" fill-rule="nonzero" fill="#000000"/>
		<path id="Vector" d="M20.5713 16.6429C20.624 16.6429 20.667 16.6014 20.667 16.5502C20.667 16.499 20.624 16.4575 20.5713 16.4575C20.5186 16.4575 20.4756 16.499 20.4756 16.5502C20.4756 16.6014 20.5186 16.6429 20.5713 16.6429Z" fill-rule="nonzero" fill="#000000"/>
		<path id="Vector" d="M20.9795 16.8015C21.0332 16.8015 21.0771 16.7595 21.0771 16.7076C21.0771 16.6558 21.0332 16.6138 20.9795 16.6138C20.9268 16.6138 20.8828 16.6558 20.8828 16.7076C20.8828 16.7595 20.9268 16.8015 20.9795 16.8015Z" fill-rule="nonzero" fill="#000000"/>
		<path id="Vector" d="M21.4336 16.86C21.4883 16.86 21.5332 16.8166 21.5332 16.763C21.5332 16.7094 21.4883 16.666 21.4336 16.666C21.3779 16.666 21.333 16.7094 21.333 16.763C21.333 16.8166 21.3779 16.86 21.4336 16.86Z" fill-rule="nonzero" fill="#000000"/>
		<path id="Vector" d="M21.8867 16.8083C21.9443 16.8083 21.9902 16.7632 21.9902 16.7076C21.9902 16.652 21.9443 16.6069 21.8867 16.6069C21.8291 16.6069 21.7822 16.652 21.7822 16.7076C21.7822 16.7632 21.8291 16.8083 21.8867 16.8083Z" fill-rule="nonzero" fill="#000000"/>
		<path id="Vector" d="M22.2939 16.6553C22.3545 16.6553 22.4023 16.6083 22.4023 16.5503C22.4023 16.4923 22.3545 16.4453 22.2939 16.4453C22.2344 16.4453 22.1855 16.4923 22.1855 16.5503C22.1855 16.6083 22.2344 16.6553 22.2939 16.6553Z" fill-rule="nonzero" fill="#000000"/>
		<path id="Vector" d="M22.6396 16.416C22.7031 16.416 22.7539 16.3665 22.7539 16.3054C22.7539 16.2444 22.7031 16.1948 22.6396 16.1948C22.5762 16.1948 22.5254 16.2444 22.5254 16.3054C22.5254 16.3665 22.5762 16.416 22.6396 16.416Z" fill-rule="nonzero" fill="#000000"/>
		<path id="Vector" d="M22.9053 16.1053C22.9717 16.1053 23.0254 16.0533 23.0254 15.9892C23.0254 15.9251 22.9717 15.873 22.9053 15.873C22.8389 15.873 22.7852 15.9251 22.7852 15.9892C22.7852 16.0533 22.8389 16.1053 22.9053 16.1053Z" fill-rule="nonzero" fill="#000000"/>
		<path id="Vector" d="M23.0781 15.739C23.1484 15.739 23.2051 15.684 23.2051 15.6161C23.2051 15.5482 23.1484 15.4932 23.0781 15.4932C23.0078 15.4932 22.9512 15.5482 22.9512 15.6161C22.9512 15.684 23.0078 15.739 23.0781 15.739Z" fill-rule="nonzero" fill="#000000"/>
		<path id="Vector" d="M23.1387 15.3307C23.2129 15.3307 23.2734 15.2726 23.2734 15.201C23.2734 15.1293 23.2129 15.0713 23.1387 15.0713C23.0654 15.0713 23.0049 15.1293 23.0049 15.201C23.0049 15.2726 23.0654 15.3307 23.1387 15.3307Z" fill-rule="nonzero" fill="#000000"/>
		<path id="Vector" d="M21.9863 13.7927C22.0557 13.7927 22.1123 13.7382 22.1123 13.671C22.1123 13.6038 22.0557 13.5493 21.9863 13.5493C21.917 13.5493 21.8604 13.6038 21.8604 13.671C21.8604 13.7382 21.917 13.7927 21.9863 13.7927Z" fill-rule="nonzero" fill="#000000"/>
		<path id="Vector" d="M23.0781 14.9128C23.1475 14.9128 23.2041 14.8584 23.2041 14.7911C23.2041 14.7239 23.1475 14.6694 23.0781 14.6694C23.0088 14.6694 22.9521 14.7239 22.9521 14.7911C22.9521 14.8584 23.0088 14.9128 23.0781 14.9128Z" fill-rule="nonzero" fill="#000000"/>
		<path id="Vector" d="M22.9434 14.5715C23.0127 14.5715 23.0693 14.517 23.0693 14.4498C23.0693 14.3826 23.0127 14.3281 22.9434 14.3281C22.874 14.3281 22.8174 14.3826 22.8174 14.4498C22.8174 14.517 22.874 14.5715 22.9434 14.5715Z" fill-rule="nonzero" fill="#000000"/>
		<path id="Vector" d="M22.708 14.2146C22.7773 14.2146 22.834 14.1601 22.834 14.0929C22.834 14.0257 22.7773 13.9712 22.708 13.9712C22.6387 13.9712 22.582 14.0257 22.582 14.0929C22.582 14.1601 22.6387 14.2146 22.708 14.2146Z" fill-rule="nonzero" fill="#000000"/>
		<path id="Vector" d="M22.3721 13.9714C22.4414 13.9714 22.498 13.9169 22.498 13.8497C22.498 13.7825 22.4414 13.728 22.3721 13.728C22.3027 13.728 22.2461 13.7825 22.2461 13.8497C22.2461 13.9169 22.3027 13.9714 22.3721 13.9714Z" fill-rule="nonzero" fill="#000000"/>
	</g>
	<defs>
		<clipPath id="clip37_5191">
			<rect id="Group_38 1" width="43.000000" height="36.000000" fill="white"/>
		</clipPath>
	</defs>
</svg>
